<svg width="60" height="60" viewBox="0 0 60 60" fill="none" xmlns="http://www.w3.org/2000/svg">
<path d="M9.76746 16.6929V41.1394L17.5116 45.6138V21.1673L9.76746 16.6929Z" stroke="#10461E" stroke-linecap="round" stroke-linejoin="round"/>
<path d="M40.7536 47.9207V59.0323L33.0048 54.5579V43.4463L38.4373 46.5812L40.7536 47.9207Z" stroke="#10461E" stroke-linecap="round" stroke-linejoin="round"/>
<path d="M29.1353 34.5442V52.321L21.3865 47.8512V30.0698L26.8143 33.2047L29.1353 34.5442Z" stroke="#10461E" stroke-linecap="round" stroke-linejoin="round"/>
<path d="M17.5116 10.056V18.9443L11.8279 15.6653L9.76746 14.4746V5.58154L17.5116 10.056Z" stroke="#10461E" stroke-linecap="round" stroke-linejoin="round"/>
<path d="M50.0557 43.27V54.3816L40.7534 59.0328V47.9212L42.307 47.1444L50.0557 43.27Z" stroke="#10461E" stroke-linecap="round" stroke-linejoin="round"/>
<path d="M50.0559 43.2698L42.3071 47.1442L40.7536 47.921L38.4373 46.5814L33.0048 43.4465L35.0698 42.414L38.4373 44.3582L40.7536 45.6977L42.3071 44.921L47.9908 42.0791L50.0559 43.2698Z" stroke="#10461E" stroke-linecap="round" stroke-linejoin="round"/>
<path d="M50.0559 32.158L42.3071 36.0324L40.7536 36.8092L38.4373 35.4696L33.2652 32.4836L33.0048 32.3348L38.1815 29.7441L42.3071 27.6836L50.0559 32.158Z" stroke="#10461E" stroke-linecap="round" stroke-linejoin="round"/>
<path d="M35.0697 42.414L33.0046 43.4466V50.3861L29.1348 52.321V34.5443L30.6883 33.7675L33.0046 32.6094V41.2233L35.0697 42.414Z" stroke="#10461E" stroke-linecap="round" stroke-linejoin="round"/>
<path d="M38.1818 29.744L33.005 32.3347V32.6091L30.6888 33.7673L29.1353 34.544L26.8143 33.2045L21.3865 30.0696L23.4469 29.0417L26.8143 30.9812L29.1353 32.3208L30.6888 31.544L36.3725 28.7021L38.1818 29.744Z" stroke="#10461E" stroke-linecap="round" stroke-linejoin="round"/>
<path d="M38.4376 18.7815L30.6888 22.656L29.1353 23.4327L26.8143 22.0932L21.6376 19.1025L21.3865 18.9583L26.5632 16.3722L30.6888 14.3071L38.4376 18.7815Z" stroke="#10461E" stroke-linecap="round" stroke-linejoin="round"/>
<path d="M26.5628 16.3722L21.3861 18.9582V19.2327L19.0698 20.3908L17.5116 21.1675L9.76746 16.6931L11.8279 15.6652L17.5116 18.9443L19.0698 18.1675L24.7489 15.3257L26.5628 16.3722Z" stroke="#10461E" stroke-linecap="round" stroke-linejoin="round"/>
<path d="M26.8143 5.40479V14.2932L24.7492 15.3257L19.0701 18.1676L17.512 18.9443V10.0559L19.0701 9.2792L26.8143 5.40479Z" stroke="#10461E" stroke-linecap="round" stroke-linejoin="round"/>
<path d="M26.814 5.40459L19.0698 9.27901L17.5116 10.0558L9.76746 5.58134L19.0698 0.930176L26.814 5.40459Z" stroke="#10461E" stroke-linecap="round" stroke-linejoin="round"/>
<path d="M23.4468 29.0417L21.3864 30.0696V43.6789L17.512 45.6138V21.1673L19.0701 20.3906L21.3864 19.2324V27.851L23.4468 29.0417Z" stroke="#10461E" stroke-linecap="round" stroke-linejoin="round"/>
<path d="M29.1353 23.4324V32.3208L26.8143 30.9813L23.4469 29.0417L21.3865 27.851V18.958L21.6376 19.1022L26.8143 22.0929L29.1353 23.4324Z" stroke="#10461E" stroke-linecap="round" stroke-linejoin="round"/>
<path d="M38.4371 18.7812V27.6696L36.372 28.7022L30.6883 31.544L29.1348 32.3208V23.4324L30.6883 22.6557L38.4371 18.7812Z" stroke="#10461E" stroke-linecap="round" stroke-linejoin="round"/>
<path d="M50.0557 32.1582V41.0466L47.9907 42.0791L42.307 44.921L40.7534 45.6977V36.8094L42.307 36.0326L50.0557 32.1582Z" stroke="#10461E" stroke-linecap="round" stroke-linejoin="round"/>
<path d="M40.7536 36.8094V45.6978L38.4373 44.3582L35.0698 42.414L33.0048 41.2233V32.335L33.2652 32.4838L38.4373 35.4698L40.7536 36.8094Z" stroke="#10461E" stroke-linecap="round" stroke-linejoin="round"/>
</svg>
