<svg width="60" height="60" viewBox="0 0 60 60" fill="none" xmlns="http://www.w3.org/2000/svg">
<path d="M36.1513 52.8778C36.1513 55.1846 35.4465 56.74 34.0427 57.5439C32.6329 58.3419 30.9261 58.1672 28.9164 57.0021C26.9009 55.8429 25.1941 54.0487 23.7843 51.6196C22.3805 49.1905 21.6757 46.8254 21.6757 44.5186C21.6757 42.2118 22.3805 40.6565 23.7843 39.8526L24.1164 39.6895C25.4562 39.0837 27.0582 39.3167 28.9164 40.3885C30.9261 41.5536 32.6329 43.3477 34.0427 45.771C35.4465 48.2002 36.1513 50.571 36.1513 52.8778Z" stroke="#10461E" stroke-linecap="round" stroke-linejoin="round"/>
<path d="M20.47 32.7453C20.47 35.7919 19.5205 37.854 17.6331 38.9317C15.7399 40.0094 13.468 39.7822 10.8175 38.2501C8.16116 36.7123 5.88937 34.3181 3.99615 31.056C2.10877 27.7997 1.16516 24.6424 1.16516 21.6016C1.16516 18.5608 2.10877 16.4929 3.99615 15.4152L4.4447 15.1938C6.24471 14.3783 8.36504 14.6812 10.8175 16.0967C11.5515 16.5162 12.2564 17.0055 12.9263 17.5647C14.6913 19.0152 16.2642 20.9259 17.6331 23.2851C19.1535 25.9123 20.0681 28.4696 20.3593 30.9569C20.4351 31.5569 20.47 32.1569 20.47 32.7453Z" stroke="#10461E" stroke-linecap="round" stroke-linejoin="round"/>
<path d="M47.0095 32.8386C47.0095 33.7299 46.9513 34.5629 46.8348 35.3318C46.6018 36.9571 46.1066 38.3085 45.3551 39.3862C44.7784 40.2251 44.0444 40.9008 43.1532 41.4076C40.5784 42.8755 37.4387 42.5435 33.7396 40.4056C33.6348 40.3474 33.5299 40.2833 33.4308 40.2192C31.9803 39.3571 30.6172 38.3085 29.3473 37.0736C28.4619 36.2289 27.6231 35.2911 26.8308 34.2717C26.6969 34.1027 26.5687 33.9338 26.4405 33.7649C25.7007 32.7687 24.996 31.6969 24.3261 30.5435C21.7572 26.1047 20.4697 21.759 20.4697 17.5124C20.4697 14.361 21.1803 11.9726 22.6017 10.3532C23.091 9.78816 23.662 9.32214 24.3261 8.9435L24.9959 8.61146C27.0814 7.70272 29.5163 7.89495 32.295 9.19398C32.7668 9.40952 33.2445 9.66 33.7396 9.94544C37.4387 12.0833 40.5784 15.3746 43.1532 19.8134C45.7221 24.2522 47.0095 28.592 47.0095 32.8386Z" stroke="#10461E" stroke-linecap="round" stroke-linejoin="round"/>
<path d="M20.4698 32.7457C20.4698 32.1574 20.4349 31.5574 20.3592 30.9574C20.068 28.47 19.1534 25.9127 17.633 23.2855C16.2641 20.9263 14.6912 19.0156 12.9261 17.5651C12.2562 17.0059 11.5513 16.5166 10.8173 16.0972C8.36492 14.6816 6.24459 14.3787 4.44458 15.1943L15.6465 9.59038C17.5397 8.51271 19.8115 8.7399 22.4678 10.2719C22.5144 10.2952 22.5552 10.3244 22.6018 10.3535C21.1805 11.9729 20.4698 14.3613 20.4698 17.5127C20.4698 21.7593 21.7573 26.1049 24.3262 30.5438C24.9961 31.6972 25.7009 32.769 26.4407 33.7651C26.5689 33.9341 26.697 34.103 26.8309 34.2719L17.633 38.9321C19.5204 37.8545 20.4698 35.7923 20.4698 32.7457Z" stroke="#10461E" stroke-linecap="round" stroke-linejoin="round"/>
<path d="M58.6603 27.0136C58.6603 31.2602 57.373 34.1204 54.804 35.5825L54.1342 35.9146L45.7807 40.0971L43.1536 41.4078C44.0448 40.901 44.7788 40.2252 45.3555 39.3864C46.107 38.3087 46.6021 36.9573 46.8351 35.332C46.9516 34.5631 47.0099 33.7301 47.0099 32.8388C47.0099 28.5922 45.7225 24.2524 43.1536 19.8136C40.5788 15.3748 37.4391 12.0835 33.74 9.94563C33.2449 9.66019 32.7672 9.40971 32.2954 9.19418C29.5167 7.89515 27.0818 7.70291 24.9963 8.61165L35.977 3.11842C38.5517 1.65046 41.6915 1.98833 45.3905 4.12036C49.0895 6.25823 52.2293 9.54951 54.804 13.9883C57.373 18.4272 58.6603 22.767 58.6603 27.0136Z" stroke="#10461E" stroke-linecap="round" stroke-linejoin="round"/>
<path d="M47.8022 47.0524C47.8022 49.3592 47.0974 50.9145 45.6935 51.7184L45.3149 51.9048L34.043 57.5436C35.4469 56.7398 36.1517 55.1844 36.1517 52.8776C36.1517 50.5708 35.4469 48.1999 34.043 45.7708C32.6333 43.3475 30.9265 41.5533 28.9168 40.3883C27.0586 39.3164 25.4566 39.0834 24.1168 39.6893L29.3479 37.0737C30.6178 38.3087 31.9809 39.3572 33.4314 40.2194C33.5304 40.2834 33.6353 40.3475 33.7401 40.4058C37.4392 42.5436 40.5789 42.8757 43.1537 41.4077L45.7808 40.097C47.1265 42.4737 47.8022 44.7922 47.8022 47.0524Z" stroke="#10461E" stroke-linecap="round" stroke-linejoin="round"/>
</svg>
