<svg width="60" height="60" viewBox="0 0 60 60" fill="none" xmlns="http://www.w3.org/2000/svg">
<path d="M30.8087 51.7648V57.4061L1.30435 40.3714V34.73L30.8087 51.7648Z" stroke="#10461E" stroke-linecap="round" stroke-linejoin="round"/>
<path d="M30.8087 43.0844V46.1235L6.54131 32.1148L1.30435 29.0887V23.4409L11.7848 29.4931L14.3478 30.9735L24.4174 36.7845C25.3565 37.991 26.3609 39.1192 27.4304 40.1822C28.4935 41.2453 29.6217 42.2105 30.8087 43.0844Z" stroke="#10461E" stroke-linecap="round" stroke-linejoin="round"/>
<path d="M22.7543 26.2779L21.6913 26.8062L19.1283 28.091C18.5935 26.9366 18.1435 25.7824 17.7783 24.628C17.7652 24.5954 17.7587 24.5627 17.7456 24.5301C17.3869 23.4149 17.0739 22.2671 16.7935 21.0997L19.363 19.815L21.013 18.9932C21.0456 19.6193 21.1109 20.2519 21.2152 20.8845C21.4826 22.6584 21.9978 24.4584 22.7543 26.2779Z" stroke="#10461E" stroke-linecap="round" stroke-linejoin="round"/>
<path d="M43.8523 45.2432V50.8845L30.8088 57.4063V51.7649L38.6153 47.8584L43.8523 45.2432Z" stroke="#10461E" stroke-linecap="round" stroke-linejoin="round"/>
<path d="M43.8522 45.2435L38.6152 47.8587L30.8087 51.7652L1.30435 34.7305L6.54131 32.1152L30.8087 46.1239L33.3783 44.8391L38.6152 42.2174L43.8522 45.2435Z" stroke="#10461E" stroke-linecap="round" stroke-linejoin="round"/>
<path d="M43.8523 39.0347V39.6021L38.6153 42.2173L33.3784 44.8391L30.8088 46.1238V43.0847L35.798 40.5934L36.1958 40.3912C38.3675 41.0694 40.2914 40.926 41.9675 39.9738L43.324 39.2956L43.8523 39.0347Z" stroke="#10461E" stroke-linecap="round" stroke-linejoin="round"/>
<path d="M36.1959 40.391L35.7981 40.5932L30.809 43.0845C29.622 42.2106 28.4937 41.2454 27.4307 40.1823C26.3611 39.1193 25.3568 37.9911 24.4176 36.7846L26.9807 35.4997L28.1676 34.9062C29.7133 36.6149 31.4155 38.004 33.2676 39.0736C34.285 39.6671 35.2633 40.1041 36.1959 40.391Z" stroke="#10461E" stroke-linecap="round" stroke-linejoin="round"/>
<path d="M21.1957 15.2302C21.0457 16.0323 20.9739 16.9128 20.9739 17.8715C20.9739 18.2433 20.987 18.6215 21.013 18.9932L19.363 19.815L16.7935 21.0997L14.3478 19.691L11.7783 18.2041L1.30435 12.1585L14.3478 5.63672L23.3739 10.8476C22.2522 11.8911 21.5283 13.3519 21.1957 15.2302Z" stroke="#10461E" stroke-linecap="round" stroke-linejoin="round"/>
<path d="M58.6045 25.5478C58.6045 29.4478 57.4045 32.0825 55.011 33.4521L54.4762 33.7195L43.8523 39.0347L43.324 39.2956L41.9675 39.9738C42.3719 39.7391 42.7436 39.4717 43.0827 39.1586C43.3632 38.9108 43.624 38.6304 43.8523 38.3239C44.9871 36.8435 45.561 34.763 45.561 32.0891V32.0695C45.561 28.4304 44.5175 24.6934 42.4436 20.8586C42.2871 20.5782 42.1306 20.2912 41.9675 20.0108C39.7436 16.1825 37.0958 13.287 34.0175 11.3239C33.7697 11.1609 33.5219 11.0043 33.2675 10.8609C30.0393 8.99565 27.2675 8.63037 24.9393 9.77167L37.611 3.44556C40.011 2.076 42.9066 2.37608 46.311 4.33912C49.7088 6.30216 52.611 9.35428 55.011 13.4891C57.4045 17.6238 58.6045 21.6412 58.6045 25.5478Z" stroke="#10461E" stroke-linecap="round" stroke-linejoin="round"/>
<path d="M42.4436 20.8583C42.2871 20.5779 42.1306 20.2909 41.9675 20.0104C39.7436 16.1822 37.0958 13.2866 34.0175 11.3236C33.7697 11.1605 33.5219 11.004 33.2675 10.8605C30.0393 8.9953 27.2675 8.63008 24.9393 9.77138H24.9197C24.8023 9.8366 24.6849 9.90175 24.5675 9.96697C24.1306 10.2148 23.7262 10.5083 23.374 10.8475C22.2523 11.8909 21.5284 13.3518 21.1958 15.2301C21.0458 16.0323 20.974 16.9127 20.974 17.8714C20.974 18.2431 20.9871 18.6214 21.0132 18.9931C21.0458 19.6192 21.111 20.2518 21.2154 20.8844C21.4827 22.6583 21.998 24.4583 22.7545 26.2778C22.9632 26.7865 23.198 27.3083 23.4523 27.8235C23.7849 28.5213 24.1567 29.2257 24.5675 29.9301C25.6632 31.8149 26.8567 33.4714 28.1675 34.9062C29.7132 36.6149 31.4154 38.0039 33.2675 39.0735C34.2849 39.667 35.2632 40.1039 36.1958 40.3909C38.3675 41.0691 40.2914 40.9257 41.9675 39.9735C42.3719 39.7387 42.7436 39.4713 43.0827 39.1583C43.3632 38.9104 43.624 38.6301 43.8523 38.3236C44.9871 36.8431 45.561 34.7627 45.561 32.0888V32.0691C45.561 28.43 44.5175 24.6931 42.4436 20.8583ZM39.2088 25.8931L34.5523 28.5866L31.5458 30.3214L28.5197 25.104L27.7567 23.7801L26.3219 21.3083L28.0436 20.2583L29.5567 22.8736L31.5458 26.304L37.3697 22.9844L38.4914 22.3453L38.7132 22.7236L40.2132 25.3126L39.2088 25.8931Z" stroke="#10461E" stroke-linecap="round" stroke-linejoin="round"/>
<path d="M38.7131 22.7235L37.5522 23.3039L31.5457 26.3039L37.3696 22.9843L38.4914 22.3452L38.7131 22.7235Z" stroke="#10461E" stroke-linecap="round" stroke-linejoin="round"/>
<path d="M40.2133 25.3126L39.209 25.8931L34.5524 28.5866L31.5459 30.3213L28.5198 25.104L27.7568 23.78L26.322 21.3083L28.0437 20.2583L29.5568 22.8735L31.5459 26.304L37.5524 23.304L38.7133 22.7235L40.2133 25.3126Z" stroke="#10461E" stroke-linecap="round" stroke-linejoin="round"/>
<path d="M28.1674 34.9061L26.9804 35.4996L24.4174 36.7844L14.3478 30.9735L11.7848 29.4931L1.30435 23.4409L6.54131 20.8257L19.1283 28.0909L21.6913 26.8061L22.7544 26.2778C22.963 26.7865 23.1978 27.3082 23.4522 27.8234C23.7848 28.5213 24.1565 29.2257 24.5674 29.93C25.663 31.8148 26.8565 33.4713 28.1674 34.9061Z" stroke="#10461E" stroke-linecap="round" stroke-linejoin="round"/>
<path d="M19.1283 28.0912L6.54131 20.826L1.30435 17.7999V12.1587L11.7783 18.2043L14.3478 19.6912L16.7935 21.0999C17.0739 22.2673 17.387 23.4151 17.7457 24.5304C17.7587 24.563 17.7652 24.5956 17.7783 24.6283C18.1435 25.7826 18.5935 26.9369 19.1283 28.0912Z" stroke="#10461E" stroke-linecap="round" stroke-linejoin="round"/>
</svg>
