<svg width="24" height="24" viewBox="0 0 24 24" fill="none" xmlns="http://www.w3.org/2000/svg">
<rect width="24" height="24" rx="12" fill="#154D34"/>
<mask id="mask0_741_43800" style="mask-type:alpha" maskUnits="userSpaceOnUse" x="6" y="6" width="20" height="20">
<rect x="6" y="6" width="20" height="20" fill="#D9D9D9"/>
</mask>
<g mask="url(#mask0_741_43800)">
<path d="M7.00073 17.0014C6.65698 17.0014 6.36271 16.879 6.11792 16.6342C5.87313 16.3894 5.75073 16.0952 5.75073 15.7514V8.2514C5.75073 7.90765 5.87313 7.61338 6.11792 7.36859C6.36271 7.1238 6.65698 7.0014 7.00073 7.0014H17.0007C17.3445 7.0014 17.6388 7.1238 17.8835 7.36859C18.1283 7.61338 18.2507 7.90765 18.2507 8.2514V15.7514C18.2507 16.0952 18.1283 16.3894 17.8835 16.6342C17.6388 16.879 17.3445 17.0014 17.0007 17.0014H7.00073ZM12.0007 12.6264L7.00073 9.5014V15.7514H17.0007V9.5014L12.0007 12.6264ZM12.0007 11.3764L17.0007 8.2514H7.00073L12.0007 11.3764ZM7.00073 9.5014V8.2514V15.7514V9.5014Z" fill="#FCFCFC"/>
</g>
</svg>
