<svg width="24" height="24" viewBox="0 0 24 24" fill="none" xmlns="http://www.w3.org/2000/svg">
<g clip-path="url(#clip0_741_43783)">
<path d="M24 17.9096C24 18.0411 23.9959 18.3247 23.9877 18.5466C23.9671 19.0849 23.926 19.7795 23.8603 20.0959C23.7616 20.5726 23.6178 21.0205 23.4247 21.3945C23.1986 21.8384 22.911 22.2329 22.5658 22.574C22.2247 22.9151 21.8301 23.2027 21.3863 23.4288C21.0123 23.6219 20.5603 23.7658 20.0795 23.8644C19.7671 23.926 19.0767 23.9712 18.5425 23.9877C18.3205 23.9959 18.037 24 17.9055 24H6.0863C5.95479 24 5.67123 23.9959 5.44932 23.9877C4.91096 23.9671 4.21644 23.926 3.9 23.8603C3.42329 23.7616 2.97534 23.6178 2.60137 23.4247C2.15753 23.1986 1.76301 22.911 1.42192 22.5658C1.08082 22.2247 0.793151 21.8301 0.567123 21.3863C0.373973 21.0123 0.230137 20.5603 0.131507 20.0795C0.069863 19.7671 0.0246575 19.0767 0.00821918 18.5425C0.00410959 18.3247 0 18.0411 0 17.9096V6.09041C0 5.9589 0.00410959 5.67534 0.0123288 5.45342C0.0328767 4.91507 0.0739726 4.22055 0.139726 3.90411C0.238356 3.4274 0.382192 2.97945 0.575342 2.60548C0.80137 2.16164 1.08904 1.76712 1.43014 1.42603C1.77123 1.08493 2.16575 0.79726 2.60959 0.571233C2.98356 0.378082 3.43562 0.234247 3.91644 0.135616C4.22877 0.0739726 4.91918 0.0287671 5.45342 0.0123288C5.67534 0.00410959 5.9589 0 6.09041 0H17.9096C18.0411 0 18.3247 0.00410959 18.5466 0.0123288C19.0849 0.0328767 19.7795 0.0739726 20.0959 0.139726C20.5726 0.238356 21.0205 0.382192 21.3945 0.575342C21.8384 0.80137 22.2329 1.08904 22.574 1.43425C22.9151 1.77534 23.2027 2.16986 23.4288 2.6137C23.6219 2.98767 23.7658 3.43973 23.8644 3.92055C23.926 4.23288 23.9712 4.92329 23.9877 5.45753C23.9959 5.67945 24 5.96301 24 6.09452V17.9096Z" fill="url(#paint0_linear_741_43783)"/>
<path fill-rule="evenodd" clip-rule="evenodd" d="M18.3123 5.74519C16.6972 4.13012 14.5479 3.23834 12.2588 3.23834C7.54103 3.23834 3.70678 7.0767 3.70268 11.7904C3.70268 13.2986 4.0972 14.7698 4.84514 16.0644L3.63281 20.4986L8.1698 19.3109C9.41911 19.9931 10.8246 20.3507 12.2588 20.3507H12.2629C16.9766 20.3507 20.815 16.5123 20.8191 11.7986C20.8191 9.50957 19.9273 7.36026 18.3123 5.74519ZM12.2629 18.9041C10.9849 18.9041 9.73144 18.5589 8.6424 17.9137L8.3835 17.7616L5.69172 18.4685L6.41089 15.8466L6.2424 15.5794C5.53144 14.4493 5.15336 13.1383 5.15336 11.7945C5.15336 7.87396 8.34651 4.68492 12.2671 4.68492C14.1657 4.68492 15.9534 5.42464 17.2931 6.76848C18.6369 8.11231 19.3766 9.89999 19.3725 11.7986C19.3684 15.7151 16.1794 18.9041 12.2629 18.9041ZM16.1629 13.5822C15.9493 13.4753 14.8972 12.9575 14.704 12.8877C14.5068 12.8178 14.3671 12.7808 14.2232 12.9945C14.0794 13.2082 13.6725 13.689 13.5451 13.8329C13.4219 13.9767 13.2945 13.9931 13.0808 13.8863C12.8671 13.7794 12.1766 13.5534 11.3629 12.826C10.726 12.2589 10.2986 11.5603 10.1753 11.3466C10.052 11.1329 10.1629 11.0178 10.2698 10.9109C10.3643 10.8164 10.4835 10.6603 10.5903 10.537C10.6972 10.4137 10.7342 10.3233 10.804 10.1794C10.8739 10.0356 10.841 9.91231 10.7876 9.80547C10.7342 9.69862 10.3068 8.64656 10.1301 8.21916C9.95747 7.8041 9.78076 7.85752 9.64925 7.85341C9.52596 7.84519 9.38213 7.84519 9.23829 7.84519C9.09446 7.84519 8.86432 7.89862 8.66706 8.11231C8.4698 8.32601 7.91911 8.84382 7.91911 9.89588C7.91911 10.9479 8.6835 11.963 8.79035 12.1068C8.8972 12.2507 10.2986 14.4082 12.4438 15.3329C12.9534 15.5548 13.352 15.6863 13.6643 15.7849C14.178 15.9493 14.6424 15.9246 15.0123 15.8712C15.4232 15.8096 16.278 15.3534 16.4547 14.8561C16.6314 14.3589 16.6314 13.9274 16.578 13.8411C16.5164 13.7425 16.3766 13.689 16.1629 13.5822Z" fill="white"/>
</g>
<defs>
<linearGradient id="paint0_linear_741_43783" x1="12.0009" y1="24.0018" x2="12.0009" y2="0" gradientUnits="userSpaceOnUse">
<stop stop-color="#25CF43"/>
<stop offset="1" stop-color="#61FD7D"/>
</linearGradient>
<clipPath id="clip0_741_43783">
<rect width="24" height="24" fill="white"/>
</clipPath>
</defs>
</svg>
